<svg xmlns="http://www.w3.org/2000/svg" width="40" height="40" viewBox="0 0 40 40" fill="none">
  <path d="M39.0474 12.857V5.69984C39.0474 4.43937 38.5476 3.23032 37.6577 2.3377C36.7678 1.44508 35.5602 0.941714 34.2998 0.937933L27.1426 0.916504M39.0474 27.1427V34.2856C39.0474 35.5485 38.5457 36.7597 37.6526 37.6527C36.7596 38.5458 35.5484 39.0475 34.2855 39.0475H27.1426M12.8569 0.916504L5.69977 0.940313C4.43931 0.944095 3.23177 1.44746 2.34182 2.34008C1.45188 3.23271 0.952143 4.44175 0.952148 5.70222V12.857M12.8569 39.0475H5.71405C4.45112 39.0475 3.23991 38.5458 2.34688 37.6527C1.45385 36.7597 0.952148 35.5485 0.952148 34.2856V27.1427" stroke="#050505" stroke-opacity="0.2" stroke-linecap="round" stroke-linejoin="round"/>
  <g transform="translate(10,10) scale(0.5)">
    <path d="M20 28.5938C21.9531 28.5938 23.6136 27.9104 24.9812 26.5438C26.348 25.176 27.0312 23.5156 27.0312 21.5625C27.0312 19.6094 26.348 17.9489 24.9812 16.5813C23.6136 15.2146 21.9531 14.5312 20 14.5312C18.0469 14.5312 16.3865 15.2146 15.0188 16.5813C13.6521 17.9489 12.9688 19.6094 12.9688 21.5625C12.9688 23.5156 13.6521 25.176 15.0188 26.5438C16.3865 27.9104 18.0469 28.5938 20 28.5938ZM7.5 34.0625C6.64062 34.0625 5.90521 33.7567 5.29375 33.1453C4.68125 32.5328 4.375 31.7969 4.375 30.9375V12.1875C4.375 11.3281 4.68125 10.5927 5.29375 9.98125C5.90521 9.36875 6.64062 9.0625 7.5 9.0625H12.4219L15.3125 5.9375H24.6875L27.5781 9.0625H32.5C33.3594 9.0625 34.0954 9.36875 34.7068 9.98125C35.3182 10.5927 35.625 11.3281 35.625 12.1875V30.9375C35.625 31.7969 35.3182 32.5328 34.7068 33.1453C34.0954 33.7567 33.3594 34.0625 32.5 34.0625H7.5Z" fill="#050505" fill-opacity="0.2"/>
  </g>
</svg>
