<svg width="42" height="42" viewBox="0 0 42 42" fill="none" xmlns="http://www.w3.org/2000/svg">
<rect x="0.5" y="0.5" width="41" height="41" rx="20.5" stroke="#BFBEBE"/>
<path d="M27.6296 15.4574C27.2465 15.0742 26.7917 14.7701 26.2911 14.5627C25.7905 14.3553 25.254 14.2485 24.7121 14.2485C24.1702 14.2485 23.6337 14.3553 23.1331 14.5627C22.6325 14.7701 22.1777 15.0742 21.7946 15.4574L20.9996 16.2524L20.2046 15.4574C19.4308 14.6836 18.3814 14.2489 17.2871 14.2489C16.1928 14.2489 15.1434 14.6836 14.3696 15.4574C13.5958 16.2312 13.1611 17.2806 13.1611 18.3749C13.1611 19.4692 13.5958 20.5186 14.3696 21.2924L15.1646 22.0874L20.9996 27.9224L26.8346 22.0874L27.6296 21.2924C28.0128 20.9093 28.3169 20.4545 28.5243 19.9539C28.7317 19.4533 28.8385 18.9168 28.8385 18.3749C28.8385 17.833 28.7317 17.2965 28.5243 16.7959C28.3169 16.2953 28.0128 15.8405 27.6296 15.4574Z" stroke="#050505" stroke-width="1.5" stroke-linecap="round" stroke-linejoin="round"/>
</svg>
