<svg width="16" height="16" viewBox="0 0 16 16" fill="none" xmlns="http://www.w3.org/2000/svg">
<path opacity="0.1" d="M15.1999 7.99883C15.1999 11.9753 11.9764 15.1988 7.99993 15.1988C4.02348 15.1988 0.799927 11.9753 0.799927 7.99883C0.799927 4.02238 4.02348 0.798828 7.99993 0.798828C11.9764 0.798828 15.1999 4.02238 15.1999 7.99883ZM2.23993 7.99883C2.23993 11.18 4.81877 13.7588 7.99993 13.7588C11.1811 13.7588 13.7599 11.18 13.7599 7.99883C13.7599 4.81767 11.1811 2.23883 7.99993 2.23883C4.81877 2.23883 2.23993 4.81767 2.23993 7.99883Z" fill="currentColor"/>
<path d="M14.4799 7.99883C14.8776 7.99883 15.2037 8.32201 15.164 8.71767C15.018 10.1724 14.4317 11.5545 13.4748 12.6749C12.3615 13.9784 10.8195 14.842 9.12626 15.1102C7.43302 15.3784 5.69965 15.0336 4.23794 14.1378C2.77622 13.2421 1.68208 11.8542 1.15232 10.2238C0.622559 8.59331 0.691944 6.82735 1.34799 5.24351C2.00404 3.65966 3.2037 2.36188 4.73119 1.58358C6.25869 0.805286 8.01376 0.597559 9.68073 0.997765C11.1134 1.34171 12.4001 2.11527 13.3732 3.20635C13.6379 3.50312 13.5641 3.95625 13.2424 4.18998C12.9207 4.42371 12.4734 4.34864 12.2014 4.05859C11.4353 3.24173 10.4436 2.66183 9.34457 2.39798C8.01099 2.07781 6.60693 2.24399 5.38494 2.86663C4.16295 3.48927 3.20322 4.5275 2.67838 5.79457C2.15354 7.06165 2.09803 8.47442 2.52184 9.77877C2.94565 11.0831 3.82096 12.1934 4.99033 12.91C6.15971 13.6266 7.5464 13.9025 8.90099 13.6879C10.2556 13.4734 11.4892 12.7825 12.3799 11.7396C13.1139 10.8802 13.5754 9.82812 13.715 8.71699C13.7646 8.32245 14.0823 7.99883 14.4799 7.99883Z" fill="currentColor"/>
</svg>
